<?xml version="1.0" standalone="no"?>
<!DOCTYPE svg PUBLIC "-//W3C//DTD SVG 20010904//EN"
 "http://www.w3.org/TR/2001/REC-SVG-20010904/DTD/svg10.dtd">
<svg version="1.0" xmlns="http://www.w3.org/2000/svg"
 width="142.000000pt" height="142.000000pt" viewBox="0 0 142.000000 142.000000"
 preserveAspectRatio="xMidYMid meet">
<metadata>
Created by potrace 1.11, written by Peter Selinger 2001-2013
</metadata>
<g transform="translate(0.000000,142.000000) scale(0.100000,-0.100000)"
fill="#000000" stroke="none">
<path d="M392 1260 c-55 -18 -98 -58 -129 -120 -22 -44 -23 -153 -1 -193 9
-16 111 -125 227 -242 146 -149 215 -213 226 -209 8 3 15 9 15 14 0 12 374
387 393 394 25 8 67 -36 67 -71 0 -22 -43 -70 -240 -265 -132 -131 -244 -238
-249 -238 -18 0 -512 503 -532 542 -11 21 -25 63 -32 93 -12 53 -13 55 -33 40
-30 -20 -62 -94 -67 -152 -8 -102 -1 -111 320 -428 161 -159 293 -296 293
-303 0 -7 4 -10 10 -7 6 3 10 -1 10 -10 0 -9 4 -14 9 -11 5 4 11 0 14 -6 2 -7
129 113 288 273 332 334 351 354 367 394 43 108 -15 236 -133 297 -61 32 -173
19 -211 -24 -10 -10 -22 -19 -28 -19 -6 -1 -60 -54 -121 -118 -60 -64 -122
-124 -136 -133 l-26 -18 -134 135 c-73 74 -137 142 -141 149 -19 35 32 94 70
82 10 -3 60 -49 111 -101 52 -52 99 -95 104 -95 5 0 33 26 61 57 74 83 160
163 191 179 30 16 116 40 149 43 17 2 -27 41 -68 60 -53 26 -108 32 -170 19
-37 -8 -62 -23 -108 -65 -65 -59 -62 -59 -118 -2 -68 69 -154 89 -248 59z"/>
</g>
</svg>
